<?xml version="1.0" encoding="UTF-8"?><svg id="Layer_2" xmlns="http://www.w3.org/2000/svg" viewBox="0 0 794.36 797.41"><defs><style>.cls-1{fill:#ef4131;}</style></defs><g id="Layer_1-2"><path class="cls-1" d="M273.3,228.39c0,77.2-61.1,139.71-136.73,139.71-14.68,0-28.88-2.28-42.12-6.69C39.56,343.13,0,290.58,0,228.39,0,151.2,61.1,88.52,136.57,88.52c15.16,0,29.52,2.61,43.08,7.18,54.41,18.44,93.65,70.83,93.65,132.69"/><polygon class="cls-1" points="665.64 0 548.61 .54 524.69 .63 525.06 125.6 373.86 198.71 374.33 369.59 223.14 442.7 223.75 602.68 223.88 613.7 113.16 666.92 173.37 797.41 365.29 705.01 364.55 534.01 515.83 461.1 515.28 290.02 666.56 217.11 665.64 0"/><polygon class="cls-1" points="540.27 706 794.36 706 667.27 368.1 540.27 706"/></g></svg>