<?xml version="1.0" encoding="UTF-8"?><svg id="Layer_2" xmlns="http://www.w3.org/2000/svg" viewBox="0 0 1158.4 136.27"><defs><style>.cls-1{fill:#efe9e4;}</style></defs><g id="Layer_1-2"><path class="cls-1" d="M49.25,3.11h31.15s49.25,129.85,49.25,129.85h-40.88s-4.28-11.68-4.28-11.68h-39.32s-4.28,11.68-4.28,11.68H0S49.25,3.11,49.25,3.11ZM73.58,92.66l-8.76-22.78-8.76,22.78h17.52Z"/><path class="cls-1" d="M132.56,3.11h43.21v95.78s35.82,0,35.82,0v34.07h-79.03V3.11Z"/><path class="cls-1" d="M218.4,3.11h76.5v34.07h-35.04s0,14.41,0,14.41h34.45v32.32h-34.45s0,14.99,0,14.99h36.4v34.07h-77.86V3.11Z"/><path class="cls-1" d="M335.2,65.8L300.74,3.11h45.36s11.68,21.22,11.68,21.22l11.68-21.22h45.55s-34.45,62.69-34.45,62.69l36.99,67.16h-45.36s-14.4-25.89-14.4-25.89l-14.21,25.89h-45.36s36.99-67.16,36.99-67.16Z"/><path class="cls-1" d="M455.49,96.95c0-7.91,1.78-14.57,5.35-19.95,3.57-5.38,8.27-9.96,14.11-13.72-2.99-3.24-5.45-7.01-7.4-11.29-1.95-4.28-2.92-8.96-2.92-14.02,0-5.45,1.04-10.51,3.11-15.18,2.07-4.67,4.93-8.69,8.57-12.07,3.63-3.37,7.91-6,12.85-7.88C494.1.94,499.42,0,505.13,0c6.36,0,12.13.97,17.32,2.92,5.19,1.95,9.64,4.64,13.33,8.08,3.7,3.44,6.52,7.53,8.47,12.26,1.95,4.74,2.92,9.9,2.92,15.48,0,6.62-1.75,12.4-5.26,17.32-3.5,4.93-7.72,9.22-12.65,12.85l17.71,14.79c1.56-1.56,2.95-3.05,4.18-4.48,1.23-1.43,2.3-2.66,3.21-3.7,1.04-1.29,1.95-2.46,2.73-3.5l26.08,22.19c-5.58,7.79-12.14,14.79-19.66,21.02-3.24,2.6-6.85,5.16-10.8,7.69-3.96,2.53-8.31,4.77-13.04,6.71-4.74,1.95-9.83,3.54-15.28,4.77-5.45,1.23-11.23,1.85-17.32,1.85-8.95,0-16.68-1.01-23.16-3.02-6.49-2.01-11.84-4.77-16.06-8.27-4.22-3.5-7.33-7.66-9.34-12.46-2.01-4.8-3.02-9.99-3.02-15.57ZM508.05,103.37c1.95,0,3.92-.16,5.94-.49,2.01-.32,3.92-.81,5.74-1.46l-18.88-15.96c-3.24,2.47-4.87,5.39-4.87,8.76,0,3.11,1.23,5.42,3.7,6.91,2.46,1.49,5.26,2.24,8.37,2.24ZM498.51,37.38c0,1.82.42,3.54,1.27,5.16.84,1.63,2.5,3.54,4.96,5.74,2.98-1.82,5.12-3.53,6.42-5.16,1.3-1.62,1.95-3.54,1.95-5.74s-.65-3.96-1.95-5.26c-1.3-1.3-3.05-1.95-5.26-1.95-2.21,0-3.99.68-5.35,2.04-1.36,1.36-2.04,3.09-2.04,5.16Z"/><path class="cls-1" d="M665.53,3.11h31.15s49.25,129.85,49.25,129.85h-40.88s-4.28-11.68-4.28-11.68h-39.32s-4.28,11.68-4.28,11.68h-40.88S665.53,3.11,665.53,3.11ZM689.86,92.66l-8.76-22.78-8.76,22.78h17.52Z"/><path class="cls-1" d="M748.26,92.66c2.85.91,5.84,1.63,8.95,2.14,2.59.65,5.55,1.17,8.86,1.56,3.31.39,6.65.58,10.02.58,5.97,0,8.95-2.21,8.95-6.62,0-1.69-.91-3.41-2.73-5.16-1.82-1.75-4.12-3.7-6.91-5.84-2.79-2.14-5.78-4.51-8.95-7.11-3.18-2.59-6.16-5.58-8.95-8.95-2.79-3.37-5.09-7.17-6.91-11.39-1.82-4.22-2.73-9.05-2.73-14.5,0-6.1,1.1-11.49,3.31-16.16,2.21-4.67,5.26-8.57,9.15-11.68,3.89-3.12,8.47-5.48,13.72-7.11C779.31.81,784.92,0,790.89,0c3.11,0,6.23.16,9.34.49,3.11.33,5.9.62,8.37.88,2.85.39,5.64.78,8.37,1.17v36.4c-1.04-.13-2.21-.26-3.5-.39-1.04-.13-2.21-.26-3.5-.39-1.3-.13-2.66-.19-4.09-.19-.78,0-1.75.03-2.92.1-1.17.07-2.27.23-3.31.49-1.04.26-1.95.71-2.73,1.36-.78.65-1.17,1.56-1.17,2.73,0,1.04.88,2.33,2.63,3.89,1.75,1.56,3.89,3.38,6.42,5.45,2.53,2.08,5.32,4.48,8.37,7.2,3.05,2.72,5.84,5.84,8.37,9.34,2.53,3.5,4.67,7.46,6.42,11.87,1.75,4.41,2.63,9.34,2.63,14.8s-.91,11.06-2.73,16.06c-1.82,5-4.64,9.34-8.47,13.04-3.83,3.7-8.73,6.62-14.7,8.76-5.97,2.14-13.04,3.21-21.22,3.21-4.93,0-9.51-.23-13.72-.68-4.22-.46-7.95-1.01-11.19-1.66-3.77-.65-7.2-1.43-10.32-2.34v-38.93Z"/><path class="cls-1" d="M839.36,3.11h41.46v44.19s23.17,0,23.17,0V3.11h41.66v129.85h-41.66v-48.08s-23.17,0-23.17,0v48.08h-41.46V3.11Z"/><path class="cls-1" d="M959.27,3.11h76.5v34.07h-35.04s0,14.41,0,14.41h34.45v32.32h-34.45s0,14.99,0,14.99h36.4v34.07h-77.86V3.11Z"/><path class="cls-1" d="M1048.81,3.11h44.77c8.3,0,15.99,1.1,23.07,3.31,7.07,2.21,13.2,5.45,18.39,9.73,5.19,4.28,9.25,9.57,12.17,15.87,2.92,6.3,4.38,13.53,4.38,21.71,0,6.49-.91,12.01-2.73,16.55-1.82,4.55-3.83,8.31-6.03,11.29-2.6,3.38-5.52,6.23-8.76,8.56l24.33,42.83h-48.66s-19.47-32.9-19.47-32.9v32.9h-41.46V3.11ZM1090.27,66.97h2.14c4.93,0,9.12-1.1,12.56-3.31,3.44-2.21,5.16-5.9,5.16-11.1,0-5.19-1.72-8.89-5.16-11.1-3.44-2.21-7.63-3.31-12.56-3.31h-2.14s0,28.81,0,28.81Z"/></g></svg>